<svg width="70" height="70" viewBox="0 0 70 70" fill="none" xmlns="http://www.w3.org/2000/svg">
<path d="M43.4774 28.9628C41.1786 28.9628 38.9459 29.4086 36.8415 30.2876C36.1448 30.5787 35.816 31.3794 36.1069 32.0762C36.398 32.773 37.1988 33.1014 37.8955 32.8107C39.6643 32.0718 41.5423 31.6972 43.4774 31.6972C51.4685 31.6972 57.9696 38.1984 57.9696 46.1894C57.9696 54.1803 51.4685 60.6815 43.4774 60.6815C35.4863 60.6815 28.9852 54.1803 28.9852 46.1894C28.9852 44.2573 29.3587 42.3817 30.0955 40.6153C30.3862 39.9183 30.0568 39.1179 29.36 38.8272C28.6635 38.5369 27.8625 38.8659 27.5718 39.5627C26.6953 41.6645 26.2509 43.894 26.2509 46.1894C26.2509 55.6882 33.9786 63.4159 43.4774 63.4159C52.9762 63.4159 60.704 55.6882 60.704 46.1894C60.704 36.6906 52.9762 28.9628 43.4774 28.9628Z" fill="#2F80ED"/>
<path d="M43.4774 57.4003C49.6592 57.4003 54.6884 52.3711 54.6884 46.1894C54.6884 40.0076 49.6592 34.9784 43.4774 34.9784C37.2957 34.9784 32.2665 40.0076 32.2665 46.1894C32.2665 52.3711 37.2958 57.4003 43.4774 57.4003ZM43.4774 37.7128C48.1514 37.7128 51.954 41.5155 51.954 46.1894C51.954 50.8632 48.1514 54.6659 43.4774 54.6659C38.8034 54.6659 35.0009 50.8634 35.0009 46.1894C35.0009 41.5154 38.8034 37.7128 43.4774 37.7128Z" fill="#2F80ED"/>
<path d="M63.0662 22.4003H58.9072L54.1337 14.322C53.8877 13.9057 53.4401 13.6503 52.9566 13.6503H33.9983C33.5147 13.6503 33.0672 13.9057 32.8213 14.322L28.0477 22.4003H20.2344V20.7597C20.2344 18.0457 18.0265 15.8378 15.3125 15.8378C12.5985 15.8378 10.3906 18.0457 10.3906 20.7597V22.4003H6.93383C3.11049 22.4003 0 25.5108 0 29.3343V63.0445C0 66.8679 3.11049 69.9784 6.93383 69.9784H63.066C66.8894 69.9784 69.9999 66.8679 69.9999 63.0445V29.3343C70 25.5108 66.8894 22.4003 63.0662 22.4003ZM34.7784 16.3847H52.1764L55.7311 22.4003H31.2237L34.7784 16.3847ZM13.125 20.7597C13.125 19.5535 14.1064 18.5722 15.3125 18.5722C16.5186 18.5722 17.5 19.5535 17.5 20.7597V22.4003H13.125V20.7597ZM67.2656 63.0445C67.2656 65.3602 65.3818 67.244 63.0662 67.244H6.93383C4.61822 67.244 2.73438 65.3601 2.73438 63.0445V29.3343C2.73438 27.0185 4.61822 25.1347 6.93383 25.1347H63.066C65.3816 25.1347 67.2655 27.0185 67.2655 29.3343V63.0445H67.2656Z" fill="#2F80ED"/>
<path d="M43.4774 43.5233C44.9476 43.5233 46.1434 44.7194 46.1434 46.1894C46.1434 46.9445 46.7555 47.5565 47.5106 47.5565C48.2657 47.5565 48.8778 46.9445 48.8778 46.1894C48.8778 43.2116 46.4552 40.789 43.4774 40.789C42.7223 40.789 42.1102 41.4012 42.1102 42.1562C42.1102 42.9111 42.7223 43.5233 43.4774 43.5233Z" fill="#2F80ED"/>
<path d="M43.4774 10.0533C44.2325 10.0533 44.8446 9.44103 44.8446 8.68607V1.38898C44.8446 0.634016 44.2325 0.0217896 43.4774 0.0217896C42.7223 0.0217896 42.1102 0.633879 42.1102 1.38898V8.68607C42.1102 9.44116 42.7223 10.0533 43.4774 10.0533Z" fill="#2F80ED"/>
<path d="M49.9831 10.0534C50.333 10.0534 50.683 9.9198 50.9499 9.65292L55.9662 4.63657C56.5001 4.10268 56.5001 3.23698 55.9661 2.70296C55.4322 2.16921 54.5665 2.16921 54.0326 2.70296L49.0164 7.71944C48.4825 8.25333 48.4825 9.11903 49.0164 9.65306C49.2834 9.91993 49.6333 10.0534 49.9831 10.0534Z" fill="#2F80ED"/>
<path d="M36.0049 9.65296C36.2719 9.91983 36.6218 10.0534 36.9716 10.0534C37.3215 10.0534 37.6715 9.91983 37.9384 9.65296C38.4723 9.11907 38.4724 8.25337 37.9385 7.71934L32.9222 2.703C32.3883 2.16938 31.5226 2.16925 30.9887 2.703C30.4548 3.23688 30.4547 4.10259 30.9885 4.63661L36.0049 9.65296Z" fill="#2F80ED"/>
<path d="M18.8672 33.6112H11.7578C11.0027 33.6112 10.3906 34.2235 10.3906 34.9784C10.3906 35.7335 11.0027 36.3456 11.7578 36.3456H18.8672C19.6223 36.3456 20.2344 35.7335 20.2344 34.9784C20.2344 34.2233 19.6223 33.6112 18.8672 33.6112Z" fill="#2F80ED"/>
<path d="M32.2601 36.3455C32.6197 36.3455 32.9724 36.1992 33.2267 35.9449C33.481 35.6906 33.6273 35.3391 33.6273 34.9783C33.6273 34.6187 33.481 34.266 33.2267 34.0117C32.9724 33.7575 32.6197 33.6111 32.2601 33.6111C31.9006 33.6111 31.5478 33.7574 31.2935 34.0117C31.0379 34.266 30.8929 34.6188 30.8929 34.9783C30.8929 35.3378 31.0379 35.6906 31.2935 35.9449C31.5478 36.1992 31.8992 36.3455 32.2601 36.3455Z" fill="#2F80ED"/>
</svg>
