<svg width="15" height="14" viewBox="0 0 15 14" fill="none" xmlns="http://www.w3.org/2000/svg">
<path d="M15 4.09375C15 3.33203 14.3555 2.6875 13.5938 2.6875H11.0156L10.6348 1.75C10.4297 1.19336 9.90234 0.8125 9.31641 0.8125H5.6543C5.06836 0.8125 4.54102 1.19336 4.33594 1.75L3.98438 2.6875H1.40625C0.615234 2.6875 0 3.33203 0 4.09375V12.5312C0 13.3223 0.615234 13.9375 1.40625 13.9375H13.5938C14.3555 13.9375 15 13.3223 15 12.5312V4.09375ZM11.0156 8.3125C11.0156 10.2754 9.43359 11.8281 7.5 11.8281C5.53711 11.8281 3.98438 10.2754 3.98438 8.3125C3.98438 6.37891 5.53711 4.79688 7.5 4.79688C9.43359 4.79688 11.0156 6.37891 11.0156 8.3125ZM10.0781 8.3125C10.0781 6.90625 8.90625 5.73438 7.5 5.73438C6.06445 5.73438 4.92188 6.90625 4.92188 8.3125C4.92188 9.74805 6.06445 10.8906 7.5 10.8906C8.90625 10.8906 10.0781 9.74805 10.0781 8.3125Z" fill="white"/>
</svg>
