<svg width="15" height="16" viewBox="0 0 15 16" fill="none" xmlns="http://www.w3.org/2000/svg">
<path d="M14.5605 11.4805L11.2793 10.0742C11.1914 10.0449 11.0742 10.0156 10.9863 10.0156C10.8105 10.0156 10.5762 10.1328 10.459 10.2793L8.99414 12.0664C7.06055 11.1289 4.7168 8.81445 3.80859 6.88086L5.5957 5.41602C5.74219 5.29883 5.85938 5.06445 5.85938 4.85938C5.85938 4.80078 5.83008 4.68359 5.80078 4.5957L4.39453 1.31445C4.27734 1.08008 3.98438 0.904297 3.7207 0.904297C3.69141 0.904297 3.63281 0.904297 3.57422 0.904297L0.527344 1.60742C0.234375 1.66602 0 1.98828 0 2.28125C0 9.81055 6.06445 15.875 13.5938 15.875C13.8867 15.875 14.209 15.6406 14.2676 15.3477L14.9707 12.3008C14.9707 12.2422 14.9707 12.1836 14.9707 12.1543C14.9707 11.8906 14.7949 11.5977 14.5605 11.4805Z" fill="#E02B2B"/>
</svg>
