<svg width="282" height="80" viewBox="0 0 282 80" fill="none" xmlns="http://www.w3.org/2000/svg">
<path fill-rule="evenodd" clip-rule="evenodd" d="M35.6907 0.248437C35.6907 1.01211 36.8713 1.58116 41.0127 2.81355C55.078 6.99872 66.2912 16.1492 72.5538 28.5526C75.0055 33.4079 76.1301 37.6497 76.4076 43.0877C77.1056 56.7728 69.998 67.7328 57.4565 72.3092C54.1311 73.5231 53.7698 73.5689 47.4799 73.5777C41.0455 73.5865 40.8931 73.5661 36.633 72.1338C30.4921 70.0691 26.1883 67.4824 21.3543 62.9521C16.7477 58.6345 14.493 55.6376 11.8796 50.3605C8.40009 43.3329 7.07887 34.802 8.4843 28.4402C10.4927 19.3504 17.5923 12.0451 27.0594 9.32706C30.8222 8.24676 38.6456 8.32381 42.9145 9.48317C55.4991 12.901 65.146 21.7854 68.9147 33.4296C73.7213 48.2805 64.0327 62.5969 49.2121 62.544C43.936 62.5247 36.8928 59.9267 32.2117 56.2724C29.597 54.2314 29.624 53.7394 32.351 53.7282C36.3699 53.7117 40.8982 51.338 42.4965 48.4101C44.2345 45.2258 43.4973 39.4082 40.9529 36.2287C39.899 34.9116 37.6625 33.916 34.7434 33.4641C32.6146 33.1342 32.6639 32.0904 34.8781 30.6281C37.0027 29.2248 37.7959 27.8126 37.7959 25.4345C37.7959 23.446 36.5897 20.7413 35.3779 20.0121C34.8091 19.6698 35.3476 19.6064 37.7058 19.7372C39.393 19.8311 40.875 20.0049 40.9992 20.1233C41.1234 20.2416 41.955 21.9516 42.8468 23.9232C44.8652 28.3856 47.4302 36.6055 49.1594 44.1515C49.8853 47.3186 50.7505 50.3087 51.0828 50.7963C51.9543 52.0744 54.6595 52.7731 56.2725 52.1362C58.0438 51.4372 58.5575 49.8119 57.9819 46.7271C56.8561 40.6927 53.9728 31.0483 51.5025 25.054C50.6895 23.0812 50.0676 21.4303 50.1207 21.3849C50.1733 21.34 52.097 21.5535 54.3947 21.8593C56.6927 22.1651 58.6388 22.3525 58.7192 22.2762C58.7992 22.1996 57.4876 20.8901 55.8039 19.366C50.4061 14.4798 43.4337 11.9423 35.2697 11.8926C27.6358 11.846 22.4406 13.7285 18.2247 18.0686C14.2227 22.1883 12.1124 27.5052 12.1124 33.4669C12.1124 37.8884 12.7221 40.7413 14.7006 45.5838C19.244 56.701 27.9583 64.8073 39.0043 68.1919C55.2069 73.1564 70.121 65.1953 73.2043 49.9359C73.9335 46.3286 73.7137 39.4154 72.7567 35.8643C69.4035 23.4187 58.1765 11.7064 45.2707 7.18933C40.1639 5.40194 37.7168 5.00505 31.6908 4.9874C24.6936 4.96653 22.201 5.49344 16.3228 8.23512C13.0404 9.76609 11.7133 10.6835 8.92471 13.3513C7.05529 15.1391 4.91598 17.63 4.17031 18.8868C-7.36538 38.3303 6.18457 68.3435 30.6382 77.5121C36.3269 79.645 38.4102 79.9917 45.5852 79.9997C51.4853 80.0066 52.7139 79.8906 55.4797 79.0671C73.0316 73.841 82.5202 57.0225 78.4142 38.4165C74.736 21.7513 60.9115 7.01718 43.8606 1.58999C39.6948 0.263686 35.6907 -0.393644 35.6907 0.248437ZM28.245 21.6651C29.8004 22.4231 30.6189 23.7293 30.629 25.4686C30.6399 27.4165 30.1444 27.9197 26.6383 29.5233L24.1121 30.6791L24.1395 33.5845C24.158 35.5493 24.3626 36.6729 24.771 37.0545C25.1032 37.3651 27.0585 37.8969 29.1162 38.236C31.1738 38.5751 33.2761 39.1144 33.7885 39.4342C35.9678 40.7951 36.185 44.3353 34.199 46.1135C33.1388 47.063 30.5603 47.5907 26.6021 47.6689L24.8818 47.7026L23.169 44.3919C20.3956 39.0317 19.9 37.213 19.9152 32.4532C19.9261 29.0181 20.1072 27.8122 20.8949 25.9257C22.3395 22.4689 23.6039 21.2168 25.651 21.2168C26.5718 21.2168 27.739 21.4187 28.245 21.6651ZM158.061 25.8177C155.838 26.573 154.167 28.2034 153.391 30.3753C152.577 32.6519 152.449 47.9687 153.226 50.151C154.528 53.8092 157.029 55.3045 161.871 55.3185C163.535 55.3233 165.429 55.1347 166.081 54.8992C168.898 53.8819 170.748 51.0206 171.134 47.0838L171.388 44.4922H168.38H165.372V46.4799C165.372 47.573 165.156 48.9186 164.892 49.4696C163.992 51.3541 160.498 51.6651 159.254 49.972C158.756 49.2942 158.635 47.4534 158.635 40.5643C158.635 30.2854 158.831 29.663 162.079 29.6501C164.376 29.6413 165.155 30.6092 165.467 33.8578C165.581 35.0524 165.604 35.0625 168.424 35.1805L171.266 35.2988L171.264 33.7759C171.258 30.153 169.497 27.3069 166.441 25.9843C164.402 25.101 160.404 25.0219 158.061 25.8177ZM268.795 25.8177C266.572 26.573 264.901 28.2034 264.125 30.3753C263.311 32.6519 263.183 47.9687 263.96 50.151C265.266 53.8209 267.76 55.3045 272.645 55.3185C274.332 55.3233 276.324 55.0834 277.073 54.7852C280.046 53.6014 282 50.0679 282 45.8771V44.4922H279.053H276.105V46.4799C276.105 47.573 275.89 48.9186 275.626 49.4696C274.726 51.3541 271.232 51.6651 269.988 49.972C269.49 49.2942 269.369 47.4534 269.369 40.5643C269.369 30.2854 269.565 29.663 272.812 29.6501C275.11 29.6413 275.889 30.6092 276.201 33.8578C276.315 35.0524 276.338 35.0625 279.158 35.1805L282 35.2988L281.997 33.7759C281.992 30.153 280.231 27.3069 277.175 25.9843C275.136 25.101 271.138 25.0219 268.795 25.8177ZM97.5838 40.2433V54.9261L103.584 54.9237C110.641 54.9212 112.231 54.583 113.947 52.7201C115.449 51.09 116.104 49.1072 116.107 46.1849C116.11 43.4533 115.328 41.7189 113.416 40.2164L111.881 39.0105L112.889 38.5731C114.251 37.9815 115.689 35.024 115.689 32.8128C115.689 30.411 114.196 27.6765 112.32 26.6436C111.047 25.9425 109.943 25.8133 104.215 25.6961L97.5838 25.5605V40.2433ZM118.636 27.8226V30.0141L122.32 30.1301L126.004 30.2461L126.115 42.5861L126.227 54.9261H128.957H131.688V42.4857V30.0454H135.267H138.846V27.8383V25.6311H128.741H118.636V27.8226ZM175.055 40.2874V54.9433L183.161 54.8346L191.266 54.7254L191.393 52.6186L191.52 50.5118H186.235H180.95V45.8968V41.2818H185.582H190.213V39.0747V36.8675H185.582H180.95V33.4565V30.0454H186.213H191.476V27.8383V25.6311H183.266H175.055V40.2874ZM194.844 40.2786V54.9261H197.792H200.739V48.9065V42.887H204.08C207.87 42.887 209.272 42.4958 211.002 40.9552C214.731 37.6352 214.731 30.8223 211.002 27.5919C209.119 25.9602 207.422 25.6311 200.887 25.6311H194.844V40.2786ZM217.681 40.1783L217.791 54.7254L224.107 54.8346C229.963 54.9357 230.56 54.8775 232.317 54.032C234.976 52.7526 236.248 50.2637 236.245 46.3479C236.242 43.1013 235.48 41.2782 233.677 40.2031C233.045 39.8263 232.462 39.4764 232.382 39.4254C232.302 39.3745 232.84 38.8191 233.577 38.191C236.421 35.7688 236.609 30.3047 233.936 27.6994C232.161 25.9686 230.494 25.6359 223.575 25.6335L217.57 25.6311L217.681 40.1783ZM239.896 40.2786V54.9261H243.009C245.579 54.9261 246.173 54.8037 246.418 54.2238C246.581 53.8373 248.41 49.2846 250.482 44.1058C252.554 38.9274 254.289 34.6532 254.336 34.6078C254.383 34.5625 254.36 39.1156 254.285 44.7258L254.147 54.9261H256.706H259.264V40.2609V25.5958L256.213 25.7138L253.162 25.8318L249.135 35.9574L245.107 46.0834L245.292 35.8571L245.478 25.6311H242.687H239.896V40.2786ZM108.754 30.5563C109.65 31.2903 109.873 31.8344 109.897 33.3393C109.948 36.5645 108.131 37.998 104.492 37.6027L103.268 37.4695L103.145 34.0921C103.077 32.2345 103.118 30.4736 103.236 30.1794C103.618 29.2324 107.46 29.4952 108.754 30.5563ZM229.433 30.8219C230.312 31.8569 230.465 34.2952 229.745 35.8013C229.144 37.0577 227.704 37.6701 225.35 37.6701H223.475V33.609V29.5478L226.064 29.726C228.116 29.8676 228.814 30.0948 229.433 30.8219ZM206.863 31.0306C207.702 31.8296 207.897 32.4187 207.897 34.1515C207.897 35.4192 207.635 36.644 207.253 37.1641C206.554 38.1144 204.283 38.8684 202.107 38.8716L200.739 38.874V34.4597V30.0454H203.284C205.426 30.0454 205.994 30.2019 206.863 31.0306ZM109.202 42.5279C109.838 43.1976 110.005 43.985 110.005 46.3258C110.005 50.1365 109.554 50.6169 105.927 50.6723L103.268 50.7124L103.149 46.1978L103.03 41.6831H105.715C107.91 41.6831 108.547 41.8372 109.202 42.5279ZM228.962 42.0913C230.785 43.0211 231.044 48.4655 229.336 49.9395C228.793 50.4078 227.609 50.7244 225.986 50.8364L223.475 51.0094V46.3463V41.6831H225.819C227.108 41.6831 228.522 41.8669 228.962 42.0913ZM138.425 44.4922V46.0974H143.688H148.951V44.4922V42.887H143.688H138.425V44.4922Z" fill="#BC321E"/>
</svg>
